<?xml version="1.0" encoding="UTF-8" standalone="no"?>
<!-- Created with Inkscape (http://www.inkscape.org/) -->

<svg
   width="69.535278mm"
   height="70.191315mm"
   viewBox="0 0 69.535278 70.191315"
   version="1.1"
   id="svg1"
   sodipodi:docname="instagram.svg"
   inkscape:version="1.3.2 (091e20e, 2023-11-25, custom)"
   xmlns:inkscape="http://www.inkscape.org/namespaces/inkscape"
   xmlns:sodipodi="http://sodipodi.sourceforge.net/DTD/sodipodi-0.dtd"
   xmlns="http://www.w3.org/2000/svg"
   xmlns:svg="http://www.w3.org/2000/svg">
  <sodipodi:namedview
     id="namedview1"
     pagecolor="#ffffff"
     bordercolor="#000000"
     borderopacity="0.25"
     inkscape:showpageshadow="2"
     inkscape:pageopacity="0.0"
     inkscape:pagecheckerboard="0"
     inkscape:deskcolor="#d1d1d1"
     inkscape:document-units="mm"
     inkscape:zoom="2.2639887"
     inkscape:cx="131.40525"
     inkscape:cy="132.73035"
     inkscape:window-width="1280"
     inkscape:window-height="961"
     inkscape:window-x="-8"
     inkscape:window-y="286"
     inkscape:window-maximized="1"
     inkscape:current-layer="layer1" />
  <defs
     id="defs1" />
  <g
     id="layer1"
     transform="translate(-27.112693,12.10125)">
    <path
       d="m 47.481228,-11.855798 c -3.699314,0.17618 -6.225557,0.772106 -8.434019,1.648097 -2.285648,0.8991538 -4.222921,2.1057465 -6.150458,4.0584754 -1.927538,1.9527289 -3.114517,3.9096694 -3.999014,6.22037557 C 28.041748,2.3053471 27.461818,4.8575117 27.298409,8.5938082 27.134999,12.330104 27.09884,13.531082 27.11692,23.061691 c 0.01808,9.53061 0.0598,10.72527 0.239204,14.469286 0.176621,3.73349 0.764896,6.282846 1.632705,8.512835 0.892146,2.307194 2.086079,4.26203 4.021266,6.208441 1.935186,1.946411 3.872459,3.141774 6.167146,4.036015 2.211244,0.862655 4.740268,1.450855 8.440973,1.614406 3.700706,0.163546 4.891856,0.201448 14.330669,0.183195 9.438817,-0.01824 10.627185,-0.06036 14.335539,-0.237948 3.708354,-0.177583 6.22069,-0.775617 8.430547,-1.647395 2.285641,-0.902661 4.223614,-2.105746 6.150452,-4.059879 1.926844,-1.954133 3.113127,-3.912477 3.996931,-6.224589 0.856683,-2.232089 1.438698,-4.784955 1.599328,-8.517742 0.162018,-3.746123 0.200263,-4.942186 0.182186,-14.471393 C 96.625788,13.397718 96.583368,12.203058 96.407438,8.4604444 96.231514,4.7178306 95.642545,2.1761945 94.77543,-0.05519501 93.881896,-2.3623913 92.68935,-4.3158226 90.754857,-6.2636378 c -1.934488,-1.9478157 -3.875935,-3.1445818 -6.165751,-4.0346102 -2.212635,-0.864059 -4.740267,-1.452966 -8.440973,-1.614406 -3.700704,-0.161441 -4.891858,-0.202854 -14.334149,-0.184604 -9.44229,0.01825 -10.624402,0.05896 -14.332756,0.24146 m 0.40609,63.444739 c -3.389879,-0.148804 -5.230497,-0.717356 -6.457111,-1.193257 -1.624361,-0.631726 -2.78144,-1.395404 -4.003882,-2.61744 -1.222443,-1.222036 -1.973431,-2.394238 -2.6076,-4.030398 -0.476321,-1.23818 -1.049993,-3.094046 -1.208535,-6.515883 -0.172449,-3.698394 -0.208608,-4.808825 -0.228773,-14.178695 -0.02017,-9.36987 0.0153,-10.478897 0.175926,-14.1786937 0.144635,-3.4190305 0.711353,-5.2791068 1.182111,-6.5165839 0.625824,-1.64178042 1.379594,-2.80766207 2.592997,-4.0409275 1.213403,-1.2332654 2.371177,-1.992738 3.993452,-2.6328855 1.225224,-0.4829175 3.063755,-1.0570844 6.452244,-1.2199287 3.666633,-0.1754791 4.765301,-0.2105747 14.046268,-0.2309305 9.280969,-0.020358 10.382419,0.014741 14.050442,0.1775846 3.387097,0.148806 5.230497,0.7152523 6.455026,1.1932567 1.625056,0.631724 2.781436,1.3904948 4.003183,2.6174428 1.221747,1.22694851 1.974824,2.39142642 2.608991,4.032505 0.479106,1.2332655 1.047907,3.088428 1.207839,6.5109681 0.174536,3.7012016 0.214175,4.8109296 0.230864,14.1786936 0.01671,9.367764 -0.01598,10.480302 -0.176627,14.178695 -0.148111,3.421837 -0.709959,5.28051 -1.182107,6.520091 -0.625826,1.638974 -1.380291,2.807664 -2.594393,4.040226 -1.214091,1.232566 -2.370477,1.992039 -3.993447,2.632185 -1.223833,0.482216 -3.06445,1.057787 -6.450159,1.220634 -3.666633,0.174072 -4.765299,0.210572 -14.049745,0.230929 -9.284444,0.02036 -10.379636,-0.01756 -14.046269,-0.177588 M 76.23088,4.2370187 A 4.1721591,4.2114932 0 1 0 80.394694,0.01850608 4.1721591,4.2114932 0 0 0 76.23088,4.2370187 M 44.028767,23.029403 c 0.01947,9.953163 8.027234,18.003431 17.885349,17.984479 9.858116,-0.01894 17.838762,-8.101508 17.819986,-18.054671 C 79.71533,13.00605 71.705479,4.9536742 61.845971,4.9733281 51.986465,4.9929815 44.009992,13.077644 44.028767,23.029403 m 6.26241,-0.01264 A 11.589563,11.698826 0 1 1 61.903688,34.692431 11.588172,11.697422 0 0 1 50.291177,23.016768"
       id="path1"
       style="stroke-width:0.0698626;fill:#ffffff;fill-opacity:1"
       inkscape:export-filename="instagram.png"
       inkscape:export-xdpi="96"
       inkscape:export-ydpi="96" />
  </g>
</svg>
