<?xml version="1.0" encoding="UTF-8" standalone="no"?>
<!-- Created with Inkscape (http://www.inkscape.org/) -->

<svg
   width="109.54709mm"
   height="82.181381mm"
   viewBox="0 0 109.54709 82.181381"
   version="1.1"
   id="svg1"
   sodipodi:docname="mail.svg"
   inkscape:version="1.3.2 (091e20e, 2023-11-25, custom)"
   xmlns:inkscape="http://www.inkscape.org/namespaces/inkscape"
   xmlns:sodipodi="http://sodipodi.sourceforge.net/DTD/sodipodi-0.dtd"
   xmlns="http://www.w3.org/2000/svg"
   xmlns:svg="http://www.w3.org/2000/svg">
  <sodipodi:namedview
     id="namedview1"
     pagecolor="#ffffff"
     bordercolor="#000000"
     borderopacity="0.25"
     inkscape:showpageshadow="2"
     inkscape:pageopacity="0.0"
     inkscape:pagecheckerboard="0"
     inkscape:deskcolor="#d1d1d1"
     inkscape:document-units="mm"
     inkscape:zoom="1.4370723"
     inkscape:cx="207.01812"
     inkscape:cy="155.52454"
     inkscape:window-width="1280"
     inkscape:window-height="961"
     inkscape:window-x="-8"
     inkscape:window-y="286"
     inkscape:window-maximized="1"
     inkscape:current-layer="svg1" />
  <defs
     id="defs1" />
  <g
     id="layer1"
     transform="translate(-0.23409221,-76.047903)"
     style="fill:#ffffff;fill-opacity:1">
    <path
       style="fill:#ffffff;stroke-width:0.822345;fill-opacity:1"
       d="M 6.8798256,157.91522 C 3.7705422,156.92931 1.3559576,154.54232 0.60182003,151.70898 0.12563186,149.91991 0.10508885,84.480048 0.58015945,82.697243 1.4099767,79.583148 3.744195,77.231992 6.818561,76.413575 c 1.845246,-0.491216 94.612579,-0.485772 96.458929,0.0057 2.36252,0.628822 4.52387,2.517231 5.68427,4.96644 l 0.73135,1.543651 0.0611,33.764224 c 0.0604,33.38012 0.0558,33.7801 -0.40924,35.16075 -0.97464,2.89396 -2.99977,4.92627 -5.89644,5.91733 -1.35848,0.46478 -1.79496,0.46887 -48.50559,0.45349 -37.394321,-0.0123 -47.3266155,-0.0764 -48.0631103,-0.3099 z m 94.2443144,-4.49388 c 0.14986,-0.10212 -1.934782,-2.21845 -5.197355,-5.27636 -2.996175,-2.80822 -6.711885,-6.31247 -8.257138,-7.78722 -4.939311,-4.71398 -19.675131,-18.04212 -21.841559,-19.75509 -0.476628,-0.37686 -0.553224,-0.33279 -2.565931,1.47634 -3.67209,3.30069 -5.366202,4.1603 -8.224868,4.17336 -2.93909,0.0134 -4.7254,-0.92545 -8.790967,-4.62048 l -1.593206,-1.448 -1.132207,0.98134 c -5.402343,4.6825 -14.653873,13.09274 -23.423716,21.29368 -10.2211995,9.55817 -11.4627923,10.77338 -11.1865056,10.94881 0.365188,0.23188 91.8733026,0.2454 92.2134526,0.0136 z M 5.8968769,149.44402 c 0.311773,-0.37052 2.227048,-2.21466 4.2561661,-4.0981 2.02912,-1.88343 4.838124,-4.53119 6.242233,-5.8839 4.399847,-4.23878 15.4586,-14.32247 22.649707,-20.65268 1.073168,-0.94468 1.967915,-1.78019 1.988326,-1.85667 0.02041,-0.0765 -1.069396,-1.13122 -2.421794,-2.34386 -1.352398,-1.21264 -5.703271,-5.1682 -9.668605,-8.79014 -3.965334,-3.62194 -8.037048,-7.329481 -9.048253,-8.238987 C 18.883451,96.670177 17.47354,95.388277 16.761521,94.73101 11.004274,89.416484 5.2248856,84.209711 5.0811734,84.207938 c -0.095735,-0.0012 -0.1740632,14.828028 -0.1740632,32.953802 0,19.67231 0.085231,32.95596 0.2114534,32.95596 0.1162993,0 0.4665403,-0.30316 0.7783133,-0.67368 z M 105.13484,117.16174 c 0,-17.67901 -0.0742,-32.331581 -0.16481,-32.561267 -0.17749,-0.449736 -0.6326,-0.04657 -21.154305,18.739687 -5.169674,4.73248 -10.600444,9.69048 -12.068376,11.01777 -1.467933,1.32728 -2.668968,2.48471 -2.668968,2.57206 0,0.17807 1.537459,1.58812 7.085164,6.49802 2.091302,1.85087 4.132285,3.67854 4.535516,4.06148 0.676287,0.64225 2.201007,2.03086 6.468602,5.89115 0.90083,0.81485 1.846749,1.71035 2.102038,1.98998 0.255297,0.27965 2.814017,2.70621 5.686058,5.39238 2.872042,2.68616 6.266271,5.8772 7.542731,7.09121 1.83229,1.74261 2.35406,2.12768 2.4786,1.82923 0.0868,-0.20792 0.15775,-14.84269 0.15775,-32.5217 z m -48.356919,3.97563 c 0.917432,-0.41879 6.108924,-5.04465 22.166858,-19.75165 4.532995,-4.151644 11.452226,-10.472698 15.376064,-14.046794 L 101.45511,80.84057 78.246201,80.78144 c -12.764901,-0.03252 -33.659741,-0.03252 -46.432977,0 l -23.2240654,0.05913 9.2274604,8.471071 c 5.075103,4.65909 10.904556,9.982978 12.95434,11.830849 2.049785,1.84788 6.244957,5.65986 9.322605,8.47108 12.785469,11.67861 13.141352,11.96362 14.925037,11.95267 0.457041,-0.002 1.248734,-0.19579 1.75932,-0.42887 z"
       id="path2" />
  </g>
</svg>
